<svg width="14" height="22" viewBox="0 0 14 22" fill="none" xmlns="http://www.w3.org/2000/svg">
<path d="M13.5054 10.7744C13.5112 11.1205 13.3581 11.4576 13.0728 11.7271L3.50336 20.7153C3.17851 21.0212 2.7083 21.2163 2.19616 21.2577C1.68403 21.2991 1.17193 21.1834 0.772508 20.936C0.37309 20.6886 0.119078 20.3299 0.0663495 19.9387C0.0136214 19.5474 0.166497 19.1558 0.491345 18.8499L9.06588 10.8202L0.580035 2.96633C0.416883 2.81646 0.294192 2.64335 0.219013 2.45694C0.143835 2.27053 0.117651 2.07451 0.141967 1.88013C0.166283 1.68575 0.240619 1.49684 0.360703 1.32428C0.480788 1.15172 0.644253 0.998893 0.841702 0.874593C1.03915 0.736874 1.27157 0.631717 1.52441 0.56571C1.77725 0.499702 2.04505 0.47427 2.31104 0.491002C2.57704 0.507731 2.83549 0.566266 3.0702 0.662941C3.30492 0.759615 3.51084 0.892345 3.67506 1.05281L13.1629 9.84455C13.41 10.1162 13.5306 10.4436 13.5054 10.7744Z" fill="#0A490A"/>
</svg>
