<svg width="32" height="32" viewBox="0 0 32 32" fill="none" xmlns="http://www.w3.org/2000/svg">
<path d="M32 16C32 7.184 24.816 0 16 0C7.184 0 0 7.184 0 16C0 20.64 2 24.816 5.168 27.744C5.168 27.76 5.168 27.76 5.152 27.776C5.312 27.936 5.504 28.064 5.664 28.208C5.76 28.288 5.84 28.368 5.936 28.432C6.224 28.672 6.544 28.896 6.848 29.12C6.96 29.2 7.056 29.264 7.168 29.344C7.472 29.552 7.792 29.744 8.128 29.92C8.24 29.984 8.368 30.064 8.48 30.128C8.8 30.304 9.136 30.464 9.488 30.608C9.616 30.672 9.744 30.736 9.872 30.784C10.224 30.928 10.576 31.056 10.928 31.168C11.056 31.216 11.184 31.264 11.312 31.296C11.696 31.408 12.08 31.504 12.464 31.6C12.576 31.632 12.688 31.664 12.816 31.68C13.264 31.776 13.712 31.84 14.176 31.888C14.24 31.888 14.304 31.904 14.368 31.92C14.912 31.968 15.456 32 16 32C16.544 32 17.088 31.968 17.616 31.92C17.68 31.92 17.744 31.904 17.808 31.888C18.272 31.84 18.72 31.776 19.168 31.68C19.28 31.664 19.392 31.616 19.52 31.6C19.904 31.504 20.304 31.424 20.672 31.296C20.8 31.248 20.928 31.2 21.056 31.168C21.408 31.04 21.776 30.928 22.112 30.784C22.24 30.736 22.368 30.672 22.496 30.608C22.832 30.464 23.168 30.304 23.504 30.128C23.632 30.064 23.744 29.984 23.856 29.92C24.176 29.728 24.496 29.552 24.816 29.344C24.928 29.28 25.024 29.2 25.136 29.12C25.456 28.896 25.76 28.672 26.048 28.432C26.144 28.352 26.224 28.272 26.32 28.208C26.496 28.064 26.672 27.92 26.832 27.776C26.832 27.76 26.832 27.76 26.816 27.744C30 24.816 32 20.64 32 16ZM23.904 23.952C19.568 21.04 12.464 21.04 8.096 23.952C7.392 24.416 6.816 24.96 6.336 25.552C3.904 23.088 2.4 19.712 2.4 16C2.4 8.496 8.496 2.4 16 2.4C23.504 2.4 29.6 8.496 29.6 16C29.6 19.712 28.096 23.088 25.664 25.552C25.2 24.96 24.608 24.416 23.904 23.952Z" fill="white"/>
<path d="M16 7.88751C12.688 7.88751 10 10.5755 10 13.8875C10 17.1355 12.544 19.7755 15.92 19.8715H16.064H16.176H16.208C19.44 19.7595 21.984 17.1355 22 13.8875C22 10.5755 19.312 7.88751 16 7.88751Z" fill="white"/>
</svg>
