<svg width="32" height="30" viewBox="0 0 32 30" fill="none" xmlns="http://www.w3.org/2000/svg">
<path d="M24 0.5C25.8874 0.5 27.7407 1.12715 29.1279 2.66895C30.5196 4.21574 31.5 6.74766 31.5 10.6689C31.4999 12.5246 30.5603 15.421 28.0996 18.7021C25.6809 21.9273 21.8107 25.4929 16 28.7607C10.1893 25.4929 6.31908 21.9273 3.90039 18.7021C1.43969 15.421 0.500066 12.5246 0.5 10.6689C0.5 6.74766 1.48039 4.21574 2.87207 2.66895C4.25931 1.12715 6.1126 0.5 8 0.5C9.92189 0.5 11.3383 0.912879 12.5068 1.58105C13.6845 2.25451 14.64 3.20385 15.623 4.3291L16 4.75977L16.377 4.3291C17.36 3.20385 18.3155 2.25451 19.4932 1.58105C20.6617 0.912879 22.0781 0.5 24 0.5Z" stroke="#0A490A"/>
</svg>
