<svg width="180" height="166" viewBox="0 0 180 166" fill="none" xmlns="http://www.w3.org/2000/svg">
<path d="M123.671 4.67967C134.7 3.00331 145.237 9.84655 148.192 20.6035L154.925 45.1195C155.717 48.0034 157.089 50.6955 158.956 53.0313L174.832 72.8887C181.798 81.6015 181.141 94.149 173.302 102.086L155.437 120.175C153.336 122.303 151.69 124.837 150.601 127.622L141.342 151.3C137.28 161.689 126.084 167.394 115.291 164.574L90.6935 158.147C87.7999 157.391 84.7827 157.232 81.8259 157.682L56.6909 161.502C45.6623 163.179 35.1247 156.336 32.1704 145.579L25.4373 121.063C24.6452 118.179 23.2735 115.487 21.406 113.151L5.52971 93.2934C-1.43634 84.5805 -0.778741 72.0331 7.05989 64.0961L24.9248 46.0071C27.0263 43.8792 28.6719 41.3452 29.761 38.5599L39.0199 14.882C43.0824 4.49282 54.2776 -1.21143 65.0706 1.60855L89.6686 8.03552C92.5621 8.79154 95.5794 8.94967 98.5361 8.50025L123.671 4.67967Z" fill="#0A490A"/>
</svg>
