<svg width="31" height="33" viewBox="0 0 31 33" fill="none" xmlns="http://www.w3.org/2000/svg">
<path fill-rule="evenodd" clip-rule="evenodd" d="M1.08305e-05 16.4922C0.00394846 7.36586 6.94895 -0.0188141 15.5163 4.57764e-05C24.0993 0.0189095 31.0049 7.38891 31 16.5257C30.9911 25.6342 24.0599 33 15.5005 33C6.92532 33 -0.00195799 25.6216 1.08305e-05 16.4922ZM21.0132 17.6082C21.0191 17.6365 21.0289 17.6679 21.0358 17.6962C20.9571 17.7843 20.8803 17.8733 20.8015 17.9593C20.0938 18.7253 19.385 19.485 18.687 20.2573C18.2578 20.7331 18.2677 21.4258 18.687 21.8449C19.1044 22.261 19.7236 22.24 20.1518 21.7768C21.2997 20.535 22.4475 19.2943 23.5835 18.041C24.3484 17.1974 24.3986 15.963 23.6484 15.11C22.479 13.7812 21.2721 12.4923 20.0662 11.2012C19.7177 10.8271 19.1664 10.8229 18.7687 11.1352C18.2667 11.5345 18.2263 12.2879 18.6998 12.8098C19.4184 13.6083 20.1518 14.3921 20.8783 15.1844C20.9364 15.2483 20.9837 15.3216 21.0703 15.4317C20.8823 15.4317 20.7572 15.4317 20.6322 15.4317C16.414 15.4317 12.1978 15.4296 7.98061 15.4317C7.36338 15.4317 6.91548 15.8613 6.88299 16.4733C6.85248 17.0633 7.29054 17.5516 7.90185 17.6009C8.02687 17.6134 8.15386 17.6072 8.27888 17.6072C12.3917 17.6093 16.5026 17.6093 20.6165 17.6093C20.7474 17.6082 20.8803 17.6082 21.0132 17.6082Z" fill="white"/>
</svg>
