<svg width="32" height="29" viewBox="0 0 32 29" fill="none" xmlns="http://www.w3.org/2000/svg">
<path d="M29.34 16.7399L31.9663 5.18439C32.1559 4.35006 31.5217 3.55556 30.6661 3.55556H8.84489L8.33567 1.06611C8.20878 0.445611 7.66278 0 7.02939 0H1.33333C0.596945 0 0 0.596945 0 1.33333V2.22222C0 2.95861 0.596945 3.55556 1.33333 3.55556H5.21572L9.11839 22.6353C8.18472 23.1722 7.55556 24.179 7.55556 25.3333C7.55556 27.0516 8.94845 28.4444 10.6667 28.4444C12.3849 28.4444 13.7778 27.0516 13.7778 25.3333C13.7778 24.4626 13.4196 23.6758 12.8431 23.1111H24.4902C23.9137 23.6758 23.5556 24.4626 23.5556 25.3333C23.5556 27.0516 24.9485 28.4444 26.6667 28.4444C28.3849 28.4444 29.7778 27.0516 29.7778 25.3333C29.7778 24.1016 29.0618 23.0371 28.0234 22.5331L28.3299 21.1844C28.5195 20.3501 27.8853 19.5556 27.0297 19.5556H12.1176L11.754 17.7778H28.0398C28.6624 17.7778 29.2021 17.347 29.34 16.7399Z" fill="white"/>
</svg>
