<svg width="40" height="43" viewBox="0 0 40 43" fill="none" xmlns="http://www.w3.org/2000/svg">
<path d="M29.4989 27.5175L27.7 27.5282L27.0585 26.8685C29.7704 23.412 31.1542 18.7102 30.3502 13.7265C29.2393 6.90165 23.9241 1.47797 17.5435 0.680509C7.90409 -0.539856 -0.149938 8.25641 1.09608 18.6437C1.91129 25.5194 7.00025 31.1902 13.3372 32.3074C17.9646 33.1153 22.3046 31.5659 25.4748 28.5981L26.0937 29.2825L26.1053 31.2237L35.8449 41.6095C36.7845 42.6114 38.3101 42.6023 39.2376 41.5893C40.1652 40.5762 40.1554 38.9299 39.2158 37.9279L29.4989 27.5175ZM15.8368 27.5989C10.167 27.6327 5.56073 22.7209 5.52425 16.6022C5.48777 10.4836 10.0351 5.51715 15.7049 5.48335C21.3747 5.44954 25.9809 10.3614 26.0174 16.48C26.0539 22.5987 21.5065 27.5651 15.8368 27.5989Z" fill="#FFC107"/>
</svg>
